<svg width="31" height="27" viewBox="0 0 31 27" fill="none" xmlns="http://www.w3.org/2000/svg">
<path fill-rule="evenodd" clip-rule="evenodd" d="M7.2404 26.9211H10.023V23.9853H7.2404V26.9211ZM5.71916 4.27433H24.5795C25.2253 4.27433 25.7551 4.73222 25.7551 5.29526V21.7288C25.7551 22.2896 25.2253 22.7497 24.5795 22.7497H5.71916C5.07332 22.7497 4.54354 22.2896 4.54354 21.7288V5.29307C4.54354 4.73222 5.0708 4.27433 5.71916 4.27433ZM10.684 9.04598H19.6096C20.0007 9.04598 20.3185 9.32422 20.3185 9.66161V17.3558C20.3185 17.6954 19.9981 17.9715 19.6096 17.9715H10.684C10.293 17.9715 9.9751 17.6932 9.9751 17.3558V9.66161C9.9751 9.32422 10.293 9.04598 10.684 9.04598ZM31 14.3763V16.3831H27.6195V14.3763H31ZM31 10.5379V12.5448H27.6195V10.5379H31ZM31 18.2168V20.6333H27.6195V18.2168H31ZM31 6.28771V8.70421H27.6195V6.28771H31ZM0 14.3763V16.3831H3.38053V14.3763H0ZM0 10.5379V12.5448H3.38053V10.5379H0ZM0 18.2168V20.6333H3.38053V18.2168H0ZM0 6.28771V8.70421H3.38053V6.28771H0ZM16.5545 0H18.8654V2.93573H16.5545V0ZM12.1346 0H14.4455V2.93573H12.1346V0ZM20.977 0H23.7596V2.93573H20.977V0ZM7.2404 0H10.023V2.93573H7.2404V0ZM16.5545 26.9211H18.8654V23.9853H16.5545V26.9211ZM12.1346 26.9211H14.4455V23.9853H12.1346V26.9211ZM20.977 26.9211H23.7596V23.9853H20.977V26.9211Z" fill="white"/>
</svg>
