<svg width="34" height="34" viewBox="0 0 34 34" fill="none" xmlns="http://www.w3.org/2000/svg">
<path d="M1.5975 17.3442C2.3571 18.0214 3.11614 18.6616 3.87657 19.2643C4.88018 17.7401 5.97367 16.3425 7.16228 15.0795C6.93784 14.6568 6.81102 14.174 6.81102 13.6626C6.81102 13.41 6.84162 13.1649 6.90035 12.9297C5.65852 12.1252 4.38058 11.228 3.04997 10.2282C2.06594 12.2575 1.51506 14.5341 1.51506 16.9394H1.51837V16.9403H1.51478C1.51478 17.1035 1.51809 17.2662 1.52306 17.428L1.5975 17.3442ZM3.78448 8.88661C5.11646 9.89132 6.3911 10.7918 7.62741 11.5972C8.17884 11.0088 8.96353 10.6413 9.83286 10.6413C10.5224 10.6413 11.1577 10.8726 11.6664 11.2616C12.0303 11.0204 12.4017 10.7877 12.7794 10.5657C14.3532 9.64041 16.042 8.88578 17.8554 8.31119C17.8421 8.19097 17.8361 8.06911 17.8361 7.94669C17.8361 7.48514 17.9284 7.0451 18.0966 6.64503C16.2546 5.08421 14.0731 3.70204 11.5622 2.48089C9.46699 3.26117 7.58743 4.4837 6.0357 6.03543C5.17878 6.89152 4.42221 7.84881 3.78448 8.88661ZM13.6766 1.86191C15.6623 2.93059 17.4338 4.109 18.9844 5.40955C19.5028 4.95517 20.1617 4.65629 20.8869 4.58737C21.0495 3.79082 21.2031 2.98104 21.349 2.15582C19.9516 1.73922 18.4722 1.51423 16.9405 1.51423V1.51754H16.9392V1.51423C15.8198 1.51423 14.7288 1.635 13.6766 1.86191ZM22.7962 2.66866C22.668 3.38524 22.5337 4.09108 22.3931 4.7856C23.4042 5.16499 24.185 6.0153 24.4682 7.06964C25.8368 6.969 27.2603 6.94942 28.7429 7.01449C28.4572 6.67564 28.1583 6.34809 27.8451 6.0346C26.4119 4.60225 24.6995 3.45086 22.7962 2.66866ZM29.9166 8.60345C28.0221 8.46145 26.2256 8.45787 24.523 8.58608C24.3835 9.31452 24.0091 9.95969 23.4827 10.44C23.9305 11.1301 24.3364 11.8453 24.6989 12.5864C25.2272 13.6675 25.6623 14.8029 26.0055 15.9926C26.11 15.9819 26.2162 15.9758 26.3243 15.9758C27.6805 15.9758 28.8283 16.8691 29.2105 18.101C30.2102 18.1361 31.2439 18.1545 32.317 18.1611C32.3487 17.7578 32.3658 17.3511 32.3658 16.9405H32.3625V16.9397V16.9392H32.3658C32.3649 13.8691 31.4658 11.008 29.9166 8.60345ZM32.1231 19.671C31.1457 19.6641 30.2003 19.647 29.2824 19.6167C29.0373 20.794 28.1062 21.7206 26.9259 21.9594C26.9777 23.3702 26.9292 24.8453 26.7764 26.3855C27.6419 26.2942 28.5195 26.1685 29.4126 26.0105C30.7589 24.1638 31.7046 22.0085 32.1231 19.671ZM30.2836 27.3742L30.2869 27.3899L30.2687 27.3932C29.8493 27.9284 29.3985 28.4374 28.9177 28.9182C25.8547 31.9811 21.6197 33.8761 16.9411 33.8767V33.88H16.9405H16.9397V33.8767C12.2611 33.8767 8.02637 31.9811 4.96206 28.9174C1.89886 25.8539 0.00358431 21.6189 0.00303288 16.9403H0V16.9394H0.00303288C0.00303288 12.2603 1.89886 8.02555 4.96261 4.96179C8.02637 1.89803 12.2603 0.00303288 16.9392 0.00303288V0H16.9405V0.00303288C21.6197 0.00303288 25.8545 1.89831 28.9179 4.96261C31.9817 8.02555 33.8767 12.2603 33.8767 16.9392H33.88V16.9397V16.9405H33.8767C33.8767 20.8775 32.5345 24.4993 30.2836 27.3742ZM27.9132 27.7743C27.4699 27.8333 27.0304 27.8843 26.5939 27.9265C26.5396 28.3166 26.4784 28.7106 26.412 29.1093C26.9154 28.7172 27.3943 28.2954 27.8451 27.8446L27.9132 27.7743ZM24.6545 30.2962C24.8089 29.5284 24.9402 28.7768 25.0485 28.0409C22.2856 28.1845 19.6451 27.9852 17.0897 27.4456C16.5901 28.0381 15.8432 28.4161 15.0078 28.4161C14.9457 28.4161 14.8845 28.4137 14.8244 28.4101C14.3422 29.64 13.8754 30.8366 13.4475 31.9668C14.5697 32.2268 15.7393 32.3652 16.9394 32.3652V32.3619H16.9403H16.9408V32.3652C19.7501 32.3652 22.3848 31.6117 24.6545 30.2962ZM11.989 31.5518C12.4574 30.3067 12.925 29.1046 13.4001 27.8909C12.8018 27.4528 12.389 26.7756 12.3022 25.9998C9.56128 24.9137 6.90393 23.4069 4.27663 21.4769C3.85534 22.1866 3.45197 22.9222 3.06541 23.684C3.8206 25.2333 4.82917 26.6389 6.03543 27.8451C7.6922 29.5013 9.72258 30.7832 11.989 31.5518ZM2.31767 21.861C2.56085 21.4171 2.81037 20.982 3.06596 20.5555C2.61655 20.2017 2.1674 19.8353 1.71909 19.457C1.85502 20.2817 2.05629 21.0859 2.31767 21.861ZM12.603 12.4549C12.7648 12.8249 12.855 13.2333 12.855 13.6628C12.855 13.9518 12.8139 14.2316 12.7381 14.4963C14.3982 15.2904 16.0299 15.9207 17.6836 16.4183C18.2847 14.6187 18.8623 12.7499 19.4002 10.7948C18.9775 10.5257 18.6191 10.1657 18.3522 9.74188C16.6304 10.2834 15.0309 10.9956 13.544 11.8696C13.2258 12.0565 12.9112 12.2523 12.603 12.4549ZM11.9633 15.8054C11.4171 16.3494 10.6641 16.6852 9.83259 16.6852C9.22546 16.6852 8.65969 16.5057 8.18546 16.198C7.0633 17.3999 6.03046 18.7322 5.07924 20.1857C7.54277 22.0066 10.0242 23.4364 12.5707 24.4773C13.0179 23.585 13.9413 22.9721 15.0072 22.9721C15.1098 22.9721 15.2104 22.9779 15.3105 22.9892C15.9438 21.3344 16.5785 19.6282 17.1945 17.8529C15.4429 17.3235 13.7172 16.6522 11.9633 15.8054ZM22.1585 11.1864C21.8577 11.2738 21.5395 11.3206 21.21 11.3206C21.0826 11.3206 20.9564 11.3143 20.8326 11.2999C20.3024 13.2195 19.7358 15.0552 19.1463 16.8225C20.5938 17.1884 22.0705 17.4622 23.6115 17.6638C23.8357 17.2091 24.1704 16.8195 24.5815 16.5295C24.2575 15.3803 23.8417 14.2879 23.3352 13.2512C22.9862 12.5374 22.5936 11.85 22.1585 11.1864ZM25.4061 21.8772C24.2324 21.5037 23.3697 20.4325 23.306 19.1507C21.7046 18.9376 20.1667 18.6486 18.6574 18.2621C18.0208 20.0989 17.3649 21.8629 16.7103 23.5715C17.3312 24.0706 17.7288 24.8365 17.7288 25.6943C17.7288 25.8073 17.7214 25.9184 17.7081 26.0282C20.1223 26.5082 22.6217 26.6703 25.2415 26.5126C25.4141 24.8894 25.4679 23.3452 25.4061 21.8772Z" fill="#FFFDFD"/>
</svg>
